<svg id="Capa_1" enable-background="new 0 0 512 512" height="512" viewBox="0 0 512 512" width="512" xmlns="http://www.w3.org/2000/svg"><path d="m147.04 481.371h-88.748v-120.961c0-2.842 2.304-5.145 5.145-5.145h78.457c2.842 0 5.145 2.304 5.145 5.145v120.961z" fill="#fb2b3a"/><path d="m147.038 360.414v115.553h-25.139v-115.553c0-2.851-2.305-5.145-5.145-5.145h25.139c2.84 0 5.145 2.295 5.145 5.145z" fill="#e41f2d"/><path d="m300.374 481.371h-88.748v-205.374c0-2.842 2.304-5.145 5.145-5.145h78.457c2.842 0 5.145 2.304 5.145 5.145v205.374z" fill="#00c27a"/><path d="m300.372 276.001v199.966h-25.139v-199.966c0-2.851-2.305-5.145-5.145-5.145h25.139c2.84 0 5.145 2.295 5.145 5.145z" fill="#08b865"/><path d="m453.708 481.371h-88.748v-303.088c0-2.842 2.304-5.145 5.145-5.145h78.457c2.842 0 5.145 2.304 5.145 5.145v303.088z" fill="#8ac9fe"/><path d="m453.707 178.287v297.681h-25.139v-297.681c0-2.851-2.305-5.145-5.145-5.145h25.139c2.84 0 5.145 2.294 5.145 5.145z" fill="#60b7ff"/><path d="m112.775 201.652 12.088 24.493c.793 1.607 2.326 2.721 4.1 2.979l27.029 3.928c9.248 1.344 12.94 12.708 6.248 19.231l-19.558 19.065c-1.283 1.251-1.869 3.053-1.566 4.82l4.617 26.92c1.58 9.21-8.087 16.234-16.359 11.885l-24.176-12.71c-1.586-.834-3.481-.834-5.068 0l-24.176 12.71c-8.271 4.348-17.938-2.675-16.359-11.885l4.617-26.92c.303-1.766-.283-3.569-1.566-4.82l-19.558-19.065c-6.692-6.523-2.999-17.887 6.248-19.231l27.029-3.928c1.774-.258 3.307-1.372 4.1-2.979l12.088-24.493c4.137-8.38 16.086-8.38 20.222 0z" fill="#fe9901"/><path d="m142.685 271.348c-1.293 1.255-1.864 3.043-1.56 4.812l4.603 26.934c1.579 9.206-8.084 16.225-16.358 11.869l-24.176-12.706c-1.579-.837-3.481-.837-5.06 0l-24.176 12.706c-8.274 4.356-17.937-2.663-16.358-11.869l1.046-6.144c.552-.171 1.103-.418 1.655-.704 3.555-1.871 7.111-3.743 10.667-5.615 5.357-2.82 10.719-5.7 16.402-7.821 4.645-1.734 9.617-2.413 14.551-2.599 5.327-.2 13.199 3.486 16.498-2.642 1.015-1.885.698-4.52 1.058-6.568 1.673-9.521 7.128-17.993 14.13-24.688 4.392-4.185 8.629-8.527 12.973-12.761.456-.456.875-.913 1.217-1.408l6.201.913c9.244 1.332 12.934 12.706 6.239 19.23z" fill="#fb8801"/><path d="m266.109 107.747 12.088 24.493c.793 1.607 2.326 2.721 4.1 2.979l27.029 3.928c9.248 1.344 12.94 12.708 6.249 19.231l-19.558 19.065c-1.283 1.251-1.869 3.053-1.566 4.82l4.617 26.92c1.58 9.21-8.087 16.234-16.359 11.885l-24.176-12.71c-1.586-.834-3.481-.834-5.068 0l-24.176 12.71c-8.271 4.348-17.938-2.675-16.359-11.885l4.617-26.92c.303-1.766-.283-3.569-1.566-4.82l-19.558-19.065c-6.692-6.523-2.999-17.887 6.248-19.231l27.029-3.928c1.774-.258 3.307-1.372 4.1-2.979l12.088-24.493c4.136-8.38 16.086-8.38 20.221 0z" fill="#fe9901"/><path d="m296.019 177.443c-1.293 1.255-1.864 3.043-1.56 4.812l4.603 26.934c1.579 9.206-8.084 16.225-16.358 11.869l-24.176-12.706c-1.579-.837-3.481-.837-5.06 0l-24.176 12.706c-8.274 4.356-17.937-2.663-16.358-11.869l1.046-6.144c.552-.171 1.103-.418 1.655-.704 3.555-1.871 7.111-3.743 10.667-5.615 5.357-2.82 10.719-5.7 16.402-7.821 4.645-1.734 9.617-2.413 14.551-2.599 5.327-.2 13.199 3.486 16.498-2.642 1.015-1.885.698-4.52 1.058-6.568 1.673-9.521 7.128-17.993 14.13-24.688 4.392-4.185 8.629-8.527 12.973-12.761.456-.456.875-.913 1.217-1.408l6.201.913c9.244 1.332 12.934 12.706 6.239 19.23z" fill="#fb8801"/><path d="m419.444 7.415 12.088 24.493c.793 1.607 2.326 2.721 4.1 2.979l27.029 3.928c9.248 1.344 12.94 12.708 6.248 19.231l-19.559 19.063c-1.283 1.251-1.869 3.053-1.566 4.82l4.617 26.92c1.58 9.21-8.087 16.234-16.359 11.885l-24.176-12.71c-1.586-.834-3.481-.834-5.068 0l-24.176 12.71c-8.271 4.348-17.938-2.675-16.359-11.885l4.617-26.92c.303-1.766-.283-3.569-1.566-4.82l-19.558-19.065c-6.692-6.523-2.999-17.887 6.248-19.231l27.029-3.928c1.774-.258 3.307-1.372 4.1-2.979l12.088-24.493c4.138-8.378 16.087-8.378 20.223.002z" fill="#fe9901"/><path d="m449.354 77.11c-1.293 1.255-1.864 3.043-1.56 4.812l4.603 26.934c1.579 9.206-8.084 16.225-16.358 11.869l-24.176-12.706c-1.579-.837-3.481-.837-5.06 0l-24.176 12.706c-8.274 4.356-17.937-2.663-16.358-11.869l1.046-6.144c.552-.171 1.103-.418 1.655-.704 3.555-1.871 7.111-3.743 10.667-5.615 5.357-2.82 10.719-5.7 16.402-7.821 4.645-1.734 9.617-2.413 14.551-2.599 5.327-.2 13.199 3.486 16.498-2.642 1.015-1.885.698-4.52 1.058-6.568 1.673-9.521 7.128-17.993 14.13-24.688 4.392-4.185 8.629-8.527 12.973-12.761.456-.456.875-.913 1.217-1.408l6.201.913c9.244 1.332 12.934 12.706 6.239 19.23z" fill="#fb8801"/><path d="m506.855 510.87h-501.71c-2.842 0-5.145-2.304-5.145-5.145v-24.611c0-2.842 2.304-5.145 5.145-5.145h501.709c2.842 0 5.145 2.304 5.145 5.145v24.611c.001 2.842-2.303 5.145-5.144 5.145z" fill="#5a5a5a"/></svg>