
<svg id="Layer_1" enable-background="new 0 0 496.999 496.999" height="512" viewBox="0 0 496.999 496.999" width="512" xmlns="http://www.w3.org/2000/svg"><g><path d="m106.265 358.913-95.282 127.102c14.644 14.644 38.389 14.644 53.033 0l84.675-84.675z" fill="#1b74d6"/><path d="m127.478 380.126-84.675 84.675c-14.644 14.644-28.892 24.141-31.82 21.213-14.644-14.644-14.644-38.389 0-53.033l84.675-84.675z" fill="#1e8aff"/><path d="m111.193 325.807h75v45h-75z" fill="#ffeac3" transform="matrix(.707 -.707 .707 .707 -202.739 207.159)"/><path d="m143.335 279.419-13.86 32.403c-1.205 2.818-.575 6.086 1.592 8.253l45.858 45.857c2.167 2.167 5.435 2.798 8.253 1.592l32.403-13.86z" fill="#ffd17e"/><path d="m159.299 390.734-21.213-21.213-21.213 21.213 21.213 21.213c5.858 5.858 15.355 5.858 21.213 0s5.858-15.355 0-21.213z" fill="#ffb739"/><path d="m138.086 390.734c5.858-5.858 5.858-15.355 0-21.213l-31.82-31.82c-5.858-5.858-15.355-5.858-21.213 0s-5.858 15.355 0 21.213l31.82 31.82c5.858 5.858 15.355 5.858 21.213 0z" fill="#ffd17e"/><circle cx="308.499" cy="188.501" fill="#ffb739" r="188.5"/><path d="m308.499 30.001v317c87.537 0 158.5-70.963 158.5-158.5s-70.963-158.5-158.5-158.5z" fill="#dbebff"/><path d="m436.999 188.501c0-87.537-57.531-158.5-128.5-158.5-87.537 0-158.5 70.963-158.5 158.5s70.963 158.5 158.5 158.5c70.969 0 128.5-70.963 128.5-158.5z" fill="#fff"/></g></svg>